<?xml version="1.0" encoding="utf-8"?>
<?xml-stylesheet type="text/xsl" href="rss1.xsl"?>
<rss version="2.0" xmlns:atom="http://www.w3.org/2005/Atom" xmlns:content="http://purl.org/rss/1.0/modules/content/" xmlns:dc="http://purl.org/dc/elements/1.1/" xmlns:media="http://search.yahoo.com/mrss/">
<channel>
 <title>Getty</title>
 <link>http://www.gettyimg.com/</link>
 <atom:link href="http://www.gettyimg.com/" rel="self" type="application/rss+xml" />

 
                <item>
                <title><![CDATA[【Apple Music】WEB-RiP - Melanie Pfirrman, Pitbull &amp; IAmChino -  Suda (1080p)]]></title>
                <link><![CDATA[https://sharemania.us/threads/melanie-pfirrman-pitbull-iamchino-suda-1080p.249340/]]></link>
                <description><![CDATA[<article>
<blockquote class="messageText SelectQuoteContainer ugc baseHtml">
<img src="https://i.postimg.cc/prgwFdN5/Melanie-Pfirrman-Pitbull-IAm-Chino-Suda-mp4.jpg" class="bbCodeImage LbImage" alt="[​IMG]" data-url="https://i.postimg.cc/prgwFdN5/Melanie-Pfirrman-Pitbull-IAm-Chino-Suda-mp4.jpg" style=""><br>
<br>
<div class="bbCodeBlock bbCodeCode">
<div class="type">Code:</div>
<pre>General
Complete name                  : G:\Новая папка\Melanie Pfirrman, Pitbull &amp; IAmChino -  Suda.mp4
Format                         : MPEG-4
Format profile                 : Base Media
Codec ID                       : isom (isom/iso2/avc1/mp41)
File size                      : 148 MiB
Duration                       : 3 min 6 s
Overall bit rate               : 6 655 kb/s
Frame rate                     : 23.976 FPS
Movie name                     : Suda
Album                          : Suda (Deluxe) - Single
Album/Performer                : Melanie Pfirrman, Pitbull &amp; IAmChino
Part/Position                  : 1
Part/Total                     : 1
Track name/Position            : 3
Track name/Total               : 3
Performer                      : Melanie Pfirrman, Pitbull &amp; IAmChino
Genre                          : Pop
ContentType                    : Music Video
Recorded date                  : 2020-03-20 07:00:00 UTC
Writing application            : Lavf56.30.100
Copyright                      : ℗ 2020 Sidewalk Records, a division of Curb Records, Inc.

Video
ID                             : 1
Format                         : AVC
Format/Info                    : Advanced Video Codec
Format profile                 : High@L4
Format settings                : CABAC / 4 Ref Frames
Format settings, CABAC         : Yes
Format settings, Reference fra : 4 frames
Format settings, Slice count   : 8 slices per frame
Codec ID                       : avc1
Codec ID/Info                  : Advanced Video Coding
Duration                       : 3 min 6 s
Bit rate                       : 6 412 kb/s
Width                          : 1 920 pixels
Height                         : 1 012 pixels
Display aspect ratio           : 1.897
Frame rate mode                : Constant
Frame rate                     : 23.976 (24000/1001) FPS
Color space                    : YUV
Chroma subsampling             : 4:2:0
Bit depth                      : 8 bits
Scan type                      : Progressive
Bits/(Pixel*Frame)             : 0.138
Stream size                    : 143 MiB (96%)
Color range                    : Limited
Color primaries                : BT.709
Transfer characteristics       : BT.709
Matrix coefficients            : BT.709
Codec configuration box        : avcC

Audio
ID                             : 2
Format                         : AAC LC
Format/Info                    : Advanced Audio Codec Low Complexity
Codec ID                       : mp4a-40-2
Duration                       : 3 min 6 s
Duration_LastFrame             : -3 ms
Bit rate mode                  : Constant
Bit rate                       : 238 kb/s
Channel(s)                     : 2 channels
Channel layout                 : L R
Sampling rate                  : 48.0 kHz
Frame rate                     : 46.875 FPS (1024 SPF)
Compression mode               : Lossy
Stream size                    : 5.31 MiB (4%)
Default                        : Yes
Alternate group                : 1

</pre>
</div>
<div class="bbCodeBlock bbCodeVfcHH HiddenContent">
<div class="attribution type">Hidden Content:</div>
<blockquote>You must either reply or click 'Like' to see the hidden information contained here.</blockquote>
</div>
<div class="messageTextEndMarker">&nbsp;</div>
</blockquote>
</article>]]></description>
                <author><![CDATA[vitalya3]]></author>
                </item>

                
                <item>
                <title><![CDATA[【Unreleased/Unofficial (lossy)】MP3 - Victoria Justice - VICONIC]]></title>
                <link><![CDATA[https://sharemania.us/threads/victoria-justice-viconic.249339/]]></link>
                <description><![CDATA[<article>
<blockquote class="messageText SelectQuoteContainer ugc baseHtml">
<b>Artist</b>: Victoria Justice<br>
<b>Title</b>: VICONIC<br>
<b>Year</b>: 2015<br>
<b>Genre</b>: Pop<br>
<br>
<div style="text-align: center">
<div class="ToggleTriggerAnchor bbCodeSpoilerContainer">
<button type="button" class="button bbCodeSpoilerButton ToggleTrigger Tooltip JsOnly" data-target="> .SpoilerTarget"><span>Spoiler: <span class="SpoilerTitle">Tracklist</span></span></button>
<div class="SpoilerTarget bbCodeSpoilerText"><b>Tracklist</b>:<br>
01. Solo<br>
02. Gold<br>
03. Our Little Secret<br>
04. Shake<br>
05. Caught Up in You<br>
06. We Make the Weekend<br>
07. Favorite Song<br>
08. A.D.D. Love<br>
09. Love Zombie<br>
10. Priceless<br>
11. Perfect<br>
12. A Thousand Miles<br>
Bonus Tracks:<br>
13. Girl Up<br>
14. Friends Count<br>
15. Not Somebody Else (from "The Boy Who Cried Werewolf")<br>
16. You're the Reason (Acoustic Version from "VicTORious")</div>
</div><br>
<div class="bbCodeBlock bbCodeVfcHH HiddenContent">
<div class="attribution type">Hidden Content:</div>
<blockquote>You must reply before you can see the hidden data contained here.</blockquote>
</div></div>
<div class="messageTextEndMarker">&nbsp;</div>
</blockquote>
</article>]]></description>
                <author><![CDATA[GiTom2004]]></author>
                </item>

                
                <item>
                <title><![CDATA[【Apple Music】WEB-RiP - Jerome - Jupiter (1080p)]]></title>
                <link><![CDATA[https://sharemania.us/threads/jerome-jupiter-1080p.249338/]]></link>
                <description><![CDATA[<article>
<blockquote class="messageText SelectQuoteContainer ugc baseHtml">
<img src="https://i.postimg.cc/mkhMKb5D/Jerome-Jupiter-mp4.jpg" class="bbCodeImage LbImage" alt="[​IMG]" data-url="https://i.postimg.cc/mkhMKb5D/Jerome-Jupiter-mp4.jpg" style=""><br>
<br>
<div class="bbCodeBlock bbCodeCode">
<div class="type">Code:</div>
<pre>General
Complete name                  : G:\Новая папка\Jerome - Jupiter.mp4
Format                         : MPEG-4
Format profile                 : Base Media
Codec ID                       : isom (isom/iso2/avc1/mp41)
File size                      : 137 MiB
Duration                       : 2 min 49 s
Overall bit rate               : 6 796 kb/s
Frame rate                     : 25.000 FPS
Movie name                     : Jupiter
Performer                      : Jerome
Genre                          : Dance
ContentType                    : Music Video
Recorded date                  : 2020-08-31 07:00:00 UTC
Writing application            : Lavf56.30.100
Copyright                      : ℗ 2020 Kontor Records GmbH

Video
ID                             : 1
Format                         : AVC
Format/Info                    : Advanced Video Codec
Format profile                 : High@L4
Format settings                : CABAC / 5 Ref Frames
Format settings, CABAC         : Yes
Format settings, Reference fra : 5 frames
Format settings, Slice count   : 8 slices per frame
Codec ID                       : avc1
Codec ID/Info                  : Advanced Video Coding
Duration                       : 2 min 49 s
Bit rate                       : 6 539 kb/s
Width                          : 1 920 pixels
Height                         : 756 pixels
Display aspect ratio           : 2.540
Frame rate mode                : Constant
Frame rate                     : 25.000 FPS
Color space                    : YUV
Chroma subsampling             : 4:2:0
Bit depth                      : 8 bits
Scan type                      : Progressive
Bits/(Pixel*Frame)             : 0.180
Stream size                    : 132 MiB (96%)
Color range                    : Limited
Color primaries                : BT.709
Transfer characteristics       : BT.709
Matrix coefficients            : BT.709
Codec configuration box        : avcC

Audio
ID                             : 2
Format                         : AAC LC
Format/Info                    : Advanced Audio Codec Low Complexity
Codec ID                       : mp4a-40-2
Duration                       : 2 min 49 s
Duration_LastFrame             : -15 ms
Bit rate mode                  : Constant
Bit rate                       : 253 kb/s
Channel(s)                     : 2 channels
Channel layout                 : L R
Sampling rate                  : 48.0 kHz
Frame rate                     : 46.875 FPS (1024 SPF)
Compression mode               : Lossy
Stream size                    : 5.11 MiB (4%)
Default                        : Yes
Alternate group                : 1

</pre>
</div>
<div class="bbCodeBlock bbCodeVfcHH HiddenContent">
<div class="attribution type">Hidden Content:</div>
<blockquote>You must either reply or click 'Like' to see the hidden information contained here.</blockquote>
</div>
<div class="messageTextEndMarker">&nbsp;</div>
</blockquote>
</article>]]></description>
                <author><![CDATA[vitalya3]]></author>
                </item>

                </channel></rss>